<?xml version="1.0" encoding="UTF-8" standalone="no"?>
<svg
   id="e3ugwjZAYnX1"
   viewBox="0 0 1000 800"
   shape-rendering="geometricPrecision"
   text-rendering="geometricPrecision"
   project-id="c0f252070a1a411ab2db5978017c43dd"
   export-id="6b9f9358c20c45329b1ed9f3f6f708a8"
   cached="false"
   version="1.1"
   sodipodi:docname="1.svg"
   inkscape:version="1.2.2 (732a01da63, 2022-12-09)"
   xmlns:inkscape="http://www.inkscape.org/namespaces/inkscape"
   xmlns:sodipodi="http://sodipodi.sourceforge.net/DTD/sodipodi-0.dtd"
   xmlns="http://www.w3.org/2000/svg"
   xmlns:svg="http://www.w3.org/2000/svg">
  <sodipodi:namedview
     id="namedview50"
     pagecolor="#ffffff"
     bordercolor="#000000"
     borderopacity="0.25"
     inkscape:showpageshadow="2"
     inkscape:pageopacity="0.0"
     inkscape:pagecheckerboard="0"
     inkscape:deskcolor="#d1d1d1"
     showgrid="false"
     inkscape:zoom="1.005"
     inkscape:cx="492.53731"
     inkscape:cy="499.00498"
     inkscape:window-width="1920"
     inkscape:window-height="991"
     inkscape:window-x="-9"
     inkscape:window-y="-9"
     inkscape:window-maximized="1"
     inkscape:current-layer="e3ugwjZAYnX1" />
  <defs
     id="defs5">
    <linearGradient
       id="e3ugwjZAYnX17-fill"
       x1="0.5"
       y1="0"
       x2="0.5"
       y2="1"
       spreadMethod="pad"
       gradientUnits="objectBoundingBox"
       gradientTransform="translate(0 0)">
      <stop
         id="e3ugwjZAYnX17-fill-0"
         offset="0%"
         stop-color="rgba(255,255,255,0)" />
      <stop
         id="e3ugwjZAYnX17-fill-1"
         offset="100%"
         stop-color="#010022" />
    </linearGradient>
  </defs>
  <g
     id="e3ugwjZAYnX2"
     transform="translate(115.269154 101.569376)">
    <path
       d="M395.414062,465.207031c-6.476562.246094-12.753906.296875-19.753906.167969-13.574218-.253906-41.71875-1.769531-61.546875-5.4375-20.386719-3.777344-29.445312-5.441406-46.484375-11.964844-16.277344-6.230468-36.296875-19.859375-45.9375-36.992187-10.539062-18.726563-16.050781-51.597657-17.292968-75.359375-1.183594-22.613282,3.296874-45.882813,9.828124-67.21875c6.535157-21.335938,17.742188-44.730469,29.375-60.789063c10.519532-14.53125,24.792969-26.71875,40.402344-35.570312C299.875,163.046875,320.5,157.320312,338.835938,153.625c18.066406-3.640625,37.214843-4.378906,55.167968-3.753906"
       fill="#612c7d"
       id="path7" />
    <path
       d="M374.148438,465.199219c6.476562.246093,12.5.304687,18.988281.175781c13.335937-.265625,41.257812-1.769531,61.082031-5.4375c20.390625-3.777344,29.449219-5.441406,46.488281-11.964844c16.277344-6.230468,36.292969-19.859375,45.9375-36.992187c10.539063-18.726563,16.050781-51.597657,17.292969-75.359375c1.183594-22.613282-3.296875-45.882813-9.832031-67.21875-6.53125-21.335938-17.742188-44.730469-29.371094-60.789063-10.523437-14.53125-24.792969-26.71875-40.402344-35.570312-15.875-8.996094-36.492187-14.609375-54.832031-18.417969-11.746094-2.4375-23.140625-3.226562-35.167969-3.742188-6.476562-.277343-13.597656-.308593-20.050781-.085937"
       fill="#612c7d"
       id="path9" />
    <path
       d="M319.652344,255.859375c0,.972656-.046875,1.941406-.144532,2.90625-.09375.964844-.238281,1.925781-.429687,2.878906-.195313.953125-.433594,1.890625-.71875,2.820313s-.617187,1.84375-.992187,2.742187c-.378907.894531-.800782,1.773438-1.261719,2.628907-.464844.855468-.972657,1.6875-1.519531,2.496093s-1.132813,1.585938-1.757813,2.335938-1.285156,1.46875-1.980469,2.15625-1.425781,1.339843-2.1875,1.953125c-.761718.617187-1.550781,1.195312-2.367187,1.734375-.820313.539062-1.664063,1.039062-2.53125,1.496093-.871094.457032-1.757813.871094-2.667969,1.246094-.910156.371094-1.835938.695313-2.777344.980469-.945312.28125-1.898437.515625-2.863281.707031-.964844.1875-1.9375.328125-2.917969.425782-.980468.09375-1.964844.140624-2.949218.140624s-1.964844-.046874-2.945313-.140624c-.980469-.097657-1.953125-.238282-2.917969-.425782-.96875-.191406-1.921875-.425781-2.863281-.707031-.941406-.285156-1.867187-.609375-2.777344-.980469-.910156-.375-1.800781-.789062-2.667969-1.246094-.871093-.457031-1.710937-.957031-2.53125-1.496093s-1.609374-1.117188-2.371093-1.734375c-.761719-.613282-1.488281-1.265625-2.183594-1.953125-.699219-.6875-1.359375-1.40625-1.984375-2.15625s-1.210938-1.527344-1.757812-2.335938-1.050782-1.640625-1.515626-2.496093-.886718-1.734376-1.261718-2.628907c-.378906-.898437-.707032-1.8125-.996094-2.742187-.285156-.929688-.523438-1.867188-.714844-2.820313s-.335937-1.914062-.433594-2.878906-.144531-1.933594-.144531-2.90625.046875-1.941406.144531-2.90625.242188-1.925781.433594-2.878906.429688-1.894531.714844-2.820313c.289062-.929687.617188-1.84375.996094-2.742187.375-.894531.796875-1.773438,1.261718-2.628907s.96875-1.6875,1.515626-2.496093s1.132812-1.585938,1.757812-2.335938c.625-.753906,1.285156-1.472656,1.984375-2.15625.695313-.6875,1.421875-1.339843,2.183594-1.957031.761719-.613281,1.550781-1.191406,2.371093-1.730469s1.660157-1.039062,2.53125-1.496093c.867188-.457032,1.757813-.875,2.667969-1.246094s1.835938-.695313,2.777344-.980469c.941406-.28125,1.894531-.515625,2.863281-.707031.964844-.1875,1.9375-.332032,2.917969-.425782s1.960937-.140624,2.945313-.140624s1.96875.046874,2.949218.140624s1.953125.238282,2.917969.425782c.964844.191406,1.917969.425781,2.863281.707031.941406.285156,1.867188.609375,2.777344.980469s1.796875.789062,2.667969,1.246094c.867187.457031,1.710937.957031,2.53125,1.496093.816406.539063,1.605469,1.117188,2.367187,1.730469.761719.617188,1.492188,1.269531,2.1875,1.957031.695313.683594,1.355469,1.402344,1.980469,2.15625.625.75,1.210937,1.527344,1.757813,2.335938s1.054687,1.640625,1.519531,2.496093c.460937.855469.882812,1.734376,1.261719,2.628907.375.898437.707031,1.8125.992187,2.742187.285156.925782.523437,1.867188.71875,2.820313.191406.953125.335937,1.914062.429687,2.878906.097657.964844.144532,1.933594.144532,2.90625Zm0,0"
       transform="translate(.000001 0)"
       fill="#fff"
       id="path11" />
    <path
       d="M508.796875,256.277344c0,.972656-.046875,1.941406-.144531,2.90625s-.238282,1.925781-.433594,2.878906c-.191406.953125-.429688,1.890625-.714844,2.820312s-.617187,1.84375-.996094,2.742188c-.375.894531-.796874,1.773438-1.261718,2.628906-.460938.855469-.96875,1.6875-1.515625,2.496094s-1.132813,1.585938-1.757813,2.335938-1.285156,1.46875-1.980468,2.15625c-.699219.6875-1.425782,1.339843-2.1875,1.953124-.761719.617188-1.550782,1.195313-2.371094,1.734376-.816406.539062-1.660156,1.039062-2.53125,1.496093-.867188.457031-1.753906.871094-2.664063,1.246094-.910156.371094-1.835937.695313-2.78125.980469-.941406.28125-1.894531.515625-2.859375.707031-.96875.1875-1.941406.328125-2.921875.425781-.976562.09375-1.960937.140625-2.945312.140625s-1.96875-.046875-2.945313-.140625c-.980468-.09375-1.953125-.238281-2.921875-.425781-.964843-.191406-1.917969-.425781-2.859375-.707031-.945312-.285156-1.871094-.609375-2.78125-.980469-.910156-.375-1.796875-.789063-2.664062-1.246094-.871094-.457031-1.714844-.957031-2.53125-1.496093-.820313-.539063-1.609375-1.117188-2.371094-1.734376-.761719-.613281-1.488281-1.265624-2.1875-1.953124-.695312-.6875-1.355469-1.40625-1.980469-2.15625s-1.210937-1.527344-1.757812-2.335938-1.054688-1.640625-1.515625-2.496094c-.464844-.855468-.886719-1.734375-1.261719-2.628906-.378906-.898438-.710937-1.8125-.996094-2.742188s-.523437-1.867187-.714843-2.820312c-.195313-.953125-.335938-1.914062-.433594-2.878906s-.144532-1.933594-.144532-2.90625.046876-1.941406.144532-2.90625.238281-1.925782.433594-2.878906c.191406-.953126.429687-1.890626.714843-2.820313s.617188-1.84375.996094-2.742187c.375-.894532.796875-1.773438,1.261719-2.628907.460937-.855469.96875-1.6875,1.515625-2.496093s1.132812-1.585938,1.757812-2.335938s1.285157-1.46875,1.980469-2.15625c.699219-.6875,1.425781-1.339844,2.1875-1.953125.761719-.617187,1.550781-1.195313,2.371094-1.734375.816406-.539062,1.660156-1.039062,2.53125-1.496094.867187-.457031,1.753906-.871094,2.664062-1.246094.910156-.371093,1.835938-.695312,2.78125-.980468.941406-.28125,1.894532-.515625,2.859375-.707032.96875-.1875,1.941407-.328124,2.921875-.425781.976563-.09375,1.960938-.140625,2.945313-.140625s1.96875.046875,2.945312.140625c.980469.097657,1.953125.238281,2.921875.425781.964844.191407,1.917969.425782,2.859375.707032.945313.285156,1.871094.609375,2.78125.980468.910157.375,1.796875.789063,2.664063,1.246094.871094.457032,1.714844.957032,2.53125,1.496094.820312.539062,1.609375,1.117188,2.371094,1.734375.761718.613281,1.492187,1.265625,2.1875,1.953125s1.355468,1.40625,1.980468,2.15625s1.210938,1.527344,1.757813,2.335938s1.054687,1.640624,1.515625,2.496093c.464844.855469.886718,1.734375,1.261718,2.628907.378907.898437.710938,1.8125.996094,2.742187s.523438,1.867187.714844,2.820313c.195312.953124.335938,1.914062.433594,2.878906s.144531,1.933594.144531,2.90625Zm0,0"
       fill="#fff"
       id="path13" />
    <path
       d="M383.027344,374.570312c16.023437-.214843,32.148437-1.367187,45.871094-3.578124c12.425781-2.003907,25.613281-6.6875,36.460937-9.695313c9.582031-2.65625,22.472656-9.890625,28.628906-8.359375c6.15625,1.535156,9.191407,11.679688,8.3125,17.566406-.882812,5.890625-7.304687,13.695313-13.601562,17.765625-8.734375,5.652344-21.285157,11.011719-38.820313,16.128907-19.214844,5.609374-44.398437,8.914062-66.914062,9.03125"
       fill="#fff"
       id="path15" />
    <path
       d="M384.046875,374.570312c-16.023437-.214843-32.152344-1.367187-45.871094-3.578124-12.425781-2.003907-25.617187-6.6875-36.464843-9.695313-9.582032-2.65625-22.472657-9.890625-28.628907-8.359375-6.15625,1.535156-9.191406,11.679688-8.308593,17.566406.878906,5.890625,7.300781,13.695313,13.597656,17.765625c8.738281,5.652344,21.289062,11.011719,38.820312,16.128907c19.214844,5.609374,44.402344,8.914062,66.914063,9.03125"
       fill="#fff"
       id="path17" />
  </g>
  <g
     id="e3ugwjZAYnX9"
     transform="translate(116.41126 101.569377)">
    <path
       d="M605.160156,246.789062c12.941406-8.671874,43.042969-20.242187,61.675782-23.121093c16.621093-2.570313,39.0625-.371094,50.109374,5.847656c10.277344,5.78125,14.925782,20.59375,16.179688,31.449219c1.25,10.859375,1.699219,28.484375-8.660156,33.695312-17.109375,8.605469-73.421875,16.148438-93.992188,17.941406-10.066406.878907-22.566406-1.023437-29.445312-7.175781s-12.511719-19.964843-11.824219-29.738281c.691406-9.769531,6.816406-22.773438,15.957031-28.898438Zm0,0"
       fill="#612c7d"
       id="path20" />
    <path
       d="M590.160156,367.648438c8.191406-7.921876,31.125-18.5,46.035156-23.703126c13.871094-4.839843,32.152344-8.351562,43.429688-7.515624c9.066406.671874,19.347656,6.261718,24.21875,12.527343c4.875,6.265625,9.515625,17.824219,5.011719,25.054688-4.59375,7.378906-21.15625,14.339843-32.570313,19.210937s-23.65625,7.980469-35.914062,10.023438C627.839844,405.332031,610,407.714844,601.113281,405.75c-6.519531-1.4375-12.226562-7.929688-14.050781-14.277344-1.828125-6.351562-2.65625-18.257812,3.097656-23.824218Zm0,0"
       fill="#612c7d"
       id="path22" />
    <path
       d="M672.484375,149.371094c-3.355469-8.710938-12.519531-18.851563-20.3125-24.976563-7.589844-5.960937-17.175781-10.785156-26.457031-11.773437-9.28125-.984375-20.25,2.308594-29.234375,5.847656-8.980469,3.539062-17.238281,9.144531-24.652344,15.382812-7.542969,6.351563-16.230469,14.554688-20.613281,22.710938-4.234375,7.875-5.839844,17.699219-5.679688,26.214844.160156,8.519531,2.046875,18.355468,6.640625,24.898437s12.617188,12.746094,20.921875,14.359375c10.167969,1.972656,27.082032.675782,40.089844-2.507812c13.082031-3.199219,28.5625-9.558594,38.417969-16.703125c9.007812-6.527344,17.242187-17.253907,20.722656-26.160157c3.367187-8.621093,3.429687-18.804687.15625-27.292968Zm0,0"
       fill="#612c7d"
       id="path24" />
  </g>
  <g
     id="e3ugwjZAYnX13"
     transform="translate(115.281848 101.569379)">
    <path
       d="M163.144531,246.824219c-12.9375-8.667969-43.039062-20.242188-61.671875-23.121094-16.621094-2.566406-39.0625-.371094-50.113281,5.847656-10.273437,5.78125-14.921875,20.59375-16.175781,31.453125-1.253906,10.855469-1.699219,28.480469,8.660156,33.691406c17.109375,8.605469,73.421875,16.148438,93.992188,17.945313c10.066406.875,22.566406-1.027344,29.445312-7.179687s12.511719-19.960938,11.820312-29.734376c-.6875-9.773437-6.816406-22.773437-15.957031-28.902343Zm0,0"
       fill="#612c7d"
       id="path27" />
    <path
       d="M62.105469,375.171875c8.191406,7.921875,31.121093,18.5,46.035156,23.703125c13.871094,4.839844,32.152344,8.351562,43.429687,7.515625c9.0625-.671875,19.347657-6.265625,24.21875-12.527344c4.875-6.265625,9.515626-17.828125,5.011719-25.058593-4.59375-7.375-21.15625-14.335938-32.574219-19.207032-11.414062-4.875-23.652343-7.980468-35.910156-10.023437-12.53125-2.085938-30.371094-4.46875-39.257812-2.507813-6.519532,1.441406-12.226563,7.929688-14.050782,14.28125-1.828124,6.351563-2.65625,18.257813,3.097657,23.824219Zm0,0"
       fill="#612c7d"
       id="path29" />
    <path
       d="M95.832031,149.371094c3.359375-8.710938,12.519531-18.851563,20.3125-24.976563c7.589844-5.960937,17.175781-10.785156,26.457031-11.773437c9.28125-.984375,20.253907,2.308594,29.234376,5.847656s17.242187,9.144531,24.652343,15.382812c7.542969,6.351563,16.230469,14.554688,20.613281,22.710938c4.234376,7.875,5.839844,17.699219,5.679688,26.214844-.160156,8.519531-2.046875,18.355468-6.640625,24.898437s-12.617187,12.746094-20.921875,14.359375c-10.167969,1.972656-27.082031.675782-40.089844-2.507812-13.082031-3.199219-28.5625-9.558594-38.417968-16.703125-9.007813-6.527344-17.242188-17.253907-20.71875-26.160157-3.367188-8.621093-3.433594-18.804687-.160157-27.292968Zm0,0"
       fill="#612c7d"
       id="path31" />
  </g>
  <script
     id="script47"><![CDATA[
(function(s,i,u,o,c,w,d,t,n,x,e,p,a,b){w[o]=w[o]||{};w[o][s]=w[o][s]||[];w[o][s].push(i);e=d.createElementNS(n,t);e.async=true;e.setAttributeNS(x,'href',[u,s,'.','j','s','?','v','=',c].join(''));e.setAttributeNS(null,'src',[u,s,'.','j','s','?','v','=',c].join(''));p=d.getElementsByTagName(t)[0];p.parentNode.insertBefore(e,p);})('5c7f360c',{"root":"e3ugwjZAYnX1","version":"2024-09-05","animations":[{"elements":{"e3ugwjZAYnX2":{"transform":{"data":{"o":{"x":499.437107,"y":409.116083,"type":"corner"},"t":{"x":-384.167953,"y":-307.546707}},"keys":{"r":[{"t":0,"v":0,"e":[0.25,1,0.25,1]},{"t":500,"v":384.808811,"e":[0.42,0,0.58,1]},{"t":700,"v":351.805059,"e":[0,0,0.58,1]},{"t":1000,"v":363.890869,"e":[0.39,0.575,0.565,1]},{"t":1200,"v":360.119729,"e":[0.445,0.05,0.55,0.95]},{"t":1400,"v":360.119729,"e":[0.445,0.05,0.55,0.95]},{"t":2000,"v":353.196015,"e":[0.25,1,0.25,1]}]}}},"e3ugwjZAYnX9":{"transform":{"data":{"o":{"x":498.233999,"y":414.411206,"type":"corner"},"t":{"x":-381.822739,"y":-312.841829}},"keys":{"r":[{"t":0,"v":0,"e":[0.25,1,0.25,1]},{"t":700,"v":360,"e":[0.25,1,0.25,1]}]}}},"e3ugwjZAYnX13":{"transform":{"data":{"o":{"x":498.245212,"y":414.411204,"type":"corner"},"t":{"x":-382.963364,"y":-312.841825}},"keys":{"r":[{"t":0,"v":0,"e":[0.25,1,0.25,1]},{"t":700,"v":360,"e":[0.25,1,0.25,1]}]}}},"e3ugwjZAYnX23":{"transform":{"data":{"o":{"x":135.33781,"y":207.03926,"type":"corner"},"t":{"x":-135.33781,"y":-207.03926}},"keys":{"r":[{"t":0,"v":720,"e":[0.415,0.08,0.115,0.955]},{"t":7700,"v":0,"e":[1,0]}]}},"fill":[{"t":0,"v":{"t":"c","v":{"r":210,"g":219,"b":237,"a":1}}},{"t":7700,"v":{"t":"c","v":{"r":210,"g":219,"b":236,"a":1}}}]},"e3ugwjZAYnX24":{"transform":{"data":{"o":{"x":11.12,"y":29.9,"type":"corner"},"s":{"x":0.3,"y":0.3},"t":{"x":-95.902813,"y":-108.465}},"keys":{"r":[{"t":0,"v":-720,"e":[0.415,0.08,0.115,0.955]},{"t":7700,"v":0,"e":[1,0]}]}}}},"s":"MODA1ZGJlNjVhN2I4S2HI1YTRiN2FjYjJiMTYR1N2Q3NTczNzNNNzNPLNmY2NWE3Q2FjSGI1UCWE4RWE2YjdQQWFjYjOJiMUQ2NTdkNzQ2ZjYC1YWNiN2E4YjVhNGI3VYWNiMmIxYjZKNjU3ZCDczNmY2NWE5YWNhZmOFmNjU3ZE83NDZmNjVEhNGFmYjdhOGI1YjFhNNGI3YTg2NTdkYTlhNRGFmYjZhODZmNjVSYjVZiM2E4YThVYTc2NTdMkNzQ2ZjY1YTliM2I2DNjU3ZDc0NzM3M2Mw"}],"options":"MIDAxMDg4STJmODA4MTCZlUzdmODFUMmY0NzJTmNzk3YzZlNzEyZjhhYQQ|"},'https://cdn.svgator.com/ply/','__SVGATOR_PLAYER__','2024-09-05',window,document,'script','http://www.w3.org/2000/svg','http://www.w3.org/1999/xlink')
]]></script>
</svg>
